<?xml version="1.0" standalone="no"?><!DOCTYPE svg PUBLIC "-//W3C//DTD SVG 1.1//EN" "http://www.w3.org/Graphics/SVG/1.1/DTD/svg11.dtd"><svg t="1692242393916" class="icon" viewBox="0 0 1024 1024" version="1.1" xmlns="http://www.w3.org/2000/svg" p-id="1759" xmlns:xlink="http://www.w3.org/1999/xlink" width="1024" height="1024"><path d="M511.99534 1024c282.743695 0 511.99534-229.228343 511.995339-511.996505 0-282.743695-229.25281-511.99534-511.995339-511.995339C229.227178 0.008156 0.001165 229.2598 0.001165 512.00466c0 282.766997 229.226013 511.99534 511.994175 511.99534z m-81.797528-270.845958c-14.279149 14.272159-37.416357 14.305946-51.736283 0.0734-14.140505-14.28847-14.140505-37.571312 0-51.759585L567.876957 512.00466 378.388129 322.687098c-14.190603-14.345558-14.190603-37.440824 0-51.785217 14.343228-14.175457 37.418687-14.175457 51.761915 0l189.389797 189.366496 24.576075 24.576074 2.535201 2.510735c5.947704 6.532571 9.484869 15.091206 9.484869 24.576075a35.985646 35.985646 0 0 1-9.604871 24.892974l-2.048201 2.048201-24.918606 24.891809-189.366496 189.389797z" p-id="1760"></path><path d="M644.454952 538.806027l2.11927-2.071502a35.779428 35.779428 0 0 0 9.607202-24.892975 36.20934 36.20934 0 0 0-9.484869-24.576075l-2.535201-2.510734-24.576075-24.576075-189.363-189.366496c-14.364199-14.168467-37.447814-14.168467-51.810849 0-14.14167 14.189438-14.14167 37.497912 0 51.785217l189.487664 189.364166L378.48483 701.424749c-14.140505 14.191768-14.140505 37.522379 0 51.809683 14.190603 14.14167 37.523544 14.14167 51.662884-0.145634L619.538676 563.697836l24.916276-24.891809z" fill="#FFFFFF" p-id="1761"></path></svg>